<?xml version="1.0" encoding="UTF-8"?>
<svg width="10px" height="9px" viewBox="0 0 10 9" version="1.1" xmlns="http://www.w3.org/2000/svg" xmlns:xlink="http://www.w3.org/1999/xlink">
    <!-- Generator: Sketch 44.1 (41455) - http://www.bohemiancoding.com/sketch -->
    <title>icon-group</title>
    <desc>Created with Sketch.</desc>
    <defs></defs>
    <g id="Designs" stroke="none" stroke-width="1" fill="none" fill-rule="evenodd">
        <g id="design-v2" transform="translate(-20.000000, -129.000000)" fill-rule="nonzero" fill="#7A7A7A">
            <g id="sidebar---layers" transform="translate(0.000000, 70.000000)">
                <g id="layers" transform="translate(0.000000, 40.000000)">
                    <g id="layer">
                        <path d="M28.8888889,20.1296296 L24.6111111,20.1296296 L23.3333333,19.1666667 C23.2777778,19.1111111 23.1851852,19.0925926 23.1111111,19.0925926 L21.1111111,19.0925926 C20.5,19.0925926 20,19.5925926 20,20.2037037 L20,26.2962963 C20,26.9074074 20.5,27.4074074 21.1111111,27.4074074 L28.8888889,27.4074074 C29.5,27.4074074 30,26.9074074 30,26.2962963 L30,21.2407407 C30,20.6296296 29.5,20.1296296 28.8888889,20.1296296 Z M29.2592593,26.3148148 C29.2592593,26.5185185 29.0925926,26.6851852 28.8888889,26.6851852 L21.1111111,26.6851852 C20.9074074,26.6851852 20.7407407,26.5185185 20.7407407,26.3148148 L20.7407407,22.7962963 L29.2592593,22.7962963 L29.2592593,26.3148148 Z M29.2592593,22.037037 L20.7407407,22.037037 L20.7407407,20.2037037 C20.7407407,20 20.9074074,19.8333333 21.1111111,19.8333333 L23,19.8333333 L24.2777778,20.7962963 C24.3333333,20.8518519 24.4259259,20.8703704 24.5,20.8703704 L28.8888889,20.8703704 C29.0925926,20.8703704 29.2592593,21.037037 29.2592593,21.2407407 L29.2592593,22.037037 Z" id="icon-group"></path>
                    </g>
                </g>
            </g>
        </g>
    </g>
</svg>