<?xml version="1.0" encoding="UTF-8"?>
<svg width="10px" height="9px" viewBox="0 0 10 9" version="1.1" xmlns="http://www.w3.org/2000/svg" xmlns:xlink="http://www.w3.org/1999/xlink">
    <!-- Generator: Sketch 44.1 (41455) - http://www.bohemiancoding.com/sketch -->
    <title>layertype</title>
    <desc>Created with Sketch.</desc>
    <defs></defs>
    <g id="Wireframes" stroke="none" stroke-width="1" fill="none" fill-rule="evenodd">
        <g id="wireframe-v2" transform="translate(-20.000000, -219.000000)" fill-rule="nonzero" fill="#000000">
            <g id="sidebar---layers" transform="translate(0.000000, 70.000000)">
                <g id="layers" transform="translate(0.000000, 40.000000)">
                    <g id="layer" transform="translate(0.000000, 90.000000)">
                        <path d="M21.1737089,27.4507042 L28.8262911,27.4507042 C29.471831,27.4507042 30,26.9225352 30,26.2769953 L30,20.1737089 C30,19.528169 29.471831,19 28.8262911,19 L21.1737089,19 C20.528169,19 20,19.528169 20,20.1737089 L20,26.2769953 C20,26.9225352 20.528169,27.4507042 21.1737089,27.4507042 Z M20.9389671,26.2769953 L20.9389671,24.6455399 L23.8732394,22.7323944 L27.4765258,26.5117371 L21.1737089,26.5117371 C21.0446009,26.5117371 20.9389671,26.4061033 20.9389671,26.2769953 Z M28.8262911,26.5117371 L28.7676056,26.5117371 L26.1737089,23.7887324 L27.241784,22.7793427 L29.0610329,24.528169 L29.0610329,26.2769953 C29.0610329,26.4061033 28.9553991,26.5117371 28.8262911,26.5117371 Z M21.1737089,19.9389671 L28.8262911,19.9389671 C28.9553991,19.9389671 29.0610329,20.0446009 29.0610329,20.1737089 L29.0610329,23.2253521 L27.5704225,21.7816901 C27.3943662,21.6056338 27.100939,21.6056338 26.9248826,21.7816901 L25.528169,23.1079812 L24.2840376,21.8051643 C24.1314554,21.6408451 23.8732394,21.6173709 23.685446,21.7347418 L20.9389671,23.5187793 L20.9389671,20.1737089 C20.9389671,20.0446009 21.0446009,19.9389671 21.1737089,19.9389671 Z" id="layertype"></path>
                    </g>
                </g>
            </g>
        </g>
    </g>
</svg>