<?xml version="1.0" encoding="UTF-8"?>
<svg width="12px" height="12px" viewBox="0 0 12 12" version="1.1" xmlns="http://www.w3.org/2000/svg" xmlns:xlink="http://www.w3.org/1999/xlink">
    <!-- Generator: Sketch 44.1 (41455) - http://www.bohemiancoding.com/sketch -->
    <title>icon-copy</title>
    <desc>Created with Sketch.</desc>
    <defs></defs>
    <g id="Designs" stroke="none" stroke-width="1" fill="none" fill-rule="evenodd">
        <g id="design-v2" transform="translate(-1408.000000, -878.000000)" fill-rule="nonzero" fill="#7A7A7A">
            <g id="sidebar---properties" transform="translate(1139.000000, 70.000000)">
                <g id="code" transform="translate(1.000000, 794.000000)">
                    <g id="grouptitle">
                        <g id="icon-copy" transform="translate(268.000000, 14.000000)">
                            <path d="M6.96263736,3.95604396 L0.949450549,3.95604396 C0.421978022,3.95604396 0,4.37802198 0,4.90549451 L0,10.9318681 C0,11.4461538 0.421978022,11.8813187 0.949450549,11.8813187 L6.97582418,11.8813187 C7.49010989,11.8813187 7.92527473,11.4593407 7.92527473,10.9318681 L7.92527473,4.90549451 C7.91208791,4.37802198 7.49010989,3.95604396 6.96263736,3.95604396 Z M7.12087912,10.9186813 C7.12087912,10.9978022 7.05494505,11.0637363 6.97582418,11.0637363 L0.949450549,11.0637363 C0.87032967,11.0637363 0.804395604,10.9978022 0.804395604,10.9186813 L0.804395604,4.90549451 C0.804395604,4.82637363 0.87032967,4.76043956 0.949450549,4.76043956 L6.97582418,4.76043956 C7.05494505,4.76043956 7.12087912,4.82637363 7.12087912,4.90549451 L7.12087912,10.9186813 Z" id="Shape"></path>
                            <path d="M10.1274725,0 L4.11428571,0 C3.58681319,0 3.16483516,0.421978022 3.16483516,0.949450549 L3.16483516,3.16483516 L3.95604396,3.16483516 L3.95604396,0.949450549 C3.95604396,0.87032967 4.02197802,0.804395604 4.1010989,0.804395604 L10.1274725,0.804395604 C10.2065934,0.804395604 10.2725275,0.87032967 10.2725275,0.949450549 L10.2725275,6.97582418 C10.2725275,7.05494505 10.2065934,7.12087912 10.1274725,7.12087912 L8.7032967,7.12087912 L8.7032967,7.91208791 L10.1274725,7.91208791 C10.6417582,7.91208791 11.0769231,7.49010989 11.0769231,6.96263736 L11.0769231,0.949450549 C11.0769231,0.421978022 10.6549451,0 10.1274725,0 Z" id="Shape"></path>
                        </g>
                    </g>
                </g>
            </g>
        </g>
    </g>
</svg>