<?xml version="1.0" encoding="UTF-8"?>
<svg width="10px" height="9px" viewBox="0 0 10 9" version="1.1" xmlns="http://www.w3.org/2000/svg" xmlns:xlink="http://www.w3.org/1999/xlink">
    <!-- Generator: Sketch 44.1 (41455) - http://www.bohemiancoding.com/sketch -->
    <title>icon-image</title>
    <desc>Created with Sketch.</desc>
    <defs></defs>
    <g id="Designs" stroke="none" stroke-width="1" fill="none" fill-rule="evenodd">
        <g id="design-v2" transform="translate(-40.000000, -309.000000)" fill-rule="nonzero" fill="#7A7A7A">
            <g id="sidebar---layers" transform="translate(0.000000, 70.000000)">
                <g id="layers" transform="translate(0.000000, 40.000000)">
                    <g id="layer" transform="translate(0.000000, 180.000000)">
                        <path d="M41.1737089,27.4507042 L48.8262911,27.4507042 C49.471831,27.4507042 50,26.9225352 50,26.2769953 L50,20.1737089 C50,19.528169 49.471831,19 48.8262911,19 L41.1737089,19 C40.528169,19 40,19.528169 40,20.1737089 L40,26.2769953 C40,26.9225352 40.528169,27.4507042 41.1737089,27.4507042 Z M40.9389671,26.2769953 L40.9389671,24.6455399 L43.8732394,22.7323944 L47.4765258,26.5117371 L41.1737089,26.5117371 C41.0446009,26.5117371 40.9389671,26.4061033 40.9389671,26.2769953 Z M48.8262911,26.5117371 L48.7676056,26.5117371 L46.1737089,23.7887324 L47.241784,22.7793427 L49.0610329,24.528169 L49.0610329,26.2769953 C49.0610329,26.4061033 48.9553991,26.5117371 48.8262911,26.5117371 Z M41.1737089,19.9389671 L48.8262911,19.9389671 C48.9553991,19.9389671 49.0610329,20.0446009 49.0610329,20.1737089 L49.0610329,23.2253521 L47.5704225,21.7816901 C47.3943662,21.6056338 47.100939,21.6056338 46.9248826,21.7816901 L45.528169,23.1079812 L44.2840376,21.8051643 C44.1314554,21.6408451 43.8732394,21.6173709 43.685446,21.7347418 L40.9389671,23.5187793 L40.9389671,20.1737089 C40.9389671,20.0446009 41.0446009,19.9389671 41.1737089,19.9389671 Z" id="icon-image"></path>
                    </g>
                </g>
            </g>
        </g>
    </g>
</svg>