<?xml version="1.0" encoding="UTF-8"?>
<svg width="8px" height="8px" viewBox="0 0 8 8" version="1.1" xmlns="http://www.w3.org/2000/svg" xmlns:xlink="http://www.w3.org/1999/xlink">
    <!-- Generator: Sketch 44.1 (41455) - http://www.bohemiancoding.com/sketch -->
    <title>Shape</title>
    <desc>Created with Sketch.</desc>
    <defs></defs>
    <g id="Designs" stroke="none" stroke-width="1" fill="none" fill-rule="evenodd">
        <g id="design-v2" transform="translate(-41.000000, -354.000000)" fill-rule="nonzero" fill="#7A7A7A">
            <g id="sidebar---layers" transform="translate(0.000000, 70.000000)">
                <g id="layers" transform="translate(0.000000, 40.000000)">
                    <g id="layer" transform="translate(0.000000, 225.000000)">
                        <path d="M47.4542985,19 C47.4372466,19 47.4211978,19.0036779 47.4048146,19.0050153 C47.3880971,19.0036779 47.3720483,19 47.3553308,19 L41.7559661,19 C41.7389142,19 41.7228654,19.0036779 41.7064822,19.0050153 C41.6897647,19.0036779 41.6737159,19 41.6569984,19 C41.2938939,19 41,19.2938939 41,19.656664 L41,20.7095332 C41,21.0723033 41.2938939,21.3661972 41.6569984,21.3661972 C42.0194341,21.3661972 42.3136624,21.0723033 42.3136624,20.7095332 L42.3136624,20.313328 L43.913863,20.313328 L43.913863,25.6860033 L43.250512,25.6860033 C42.8880762,25.6860033 42.593848,25.9805659 42.593848,26.3430016 C42.593848,26.7061061 42.8880762,27 43.250512,27 L45.8912108,27 C46.2539809,27 46.5482091,26.7061061 46.5482091,26.3430016 C46.5482091,25.9805659 46.2539809,25.6860033 45.8912108,25.6860033 L45.2275254,25.6860033 L45.2275254,20.313328 L46.7976345,20.313328 L46.7976345,20.7095332 C46.7976345,21.0723033 47.0918627,21.3661972 47.4546328,21.3661972 C47.8174029,21.3661972 48.1116312,21.0723033 48.1116312,20.7095332 L48.1116312,19.656664 C48.1112969,19.2938939 47.8170686,19 47.4542985,19 Z" id="Shape"></path>
                    </g>
                </g>
            </g>
        </g>
    </g>
</svg>